<?xml version="1.0" encoding="iso-8859-1"?>
<!-- Generator: Adobe Illustrator 19.0.0, SVG Export Plug-In . SVG Version: 6.00 Build 0)  -->
<svg version="1.1" id="Layer_1" xmlns="http://www.w3.org/2000/svg" xmlns:xlink="http://www.w3.org/1999/xlink" x="0px" y="0px"
	 viewBox="0 0 511.996 511.996" style="enable-background:new 0 0 511.996 511.996;" xml:space="preserve">
<g>
	<path style="fill:#434A54;" d="M106.663,63.999c-5.891,0-10.664,4.773-10.664,10.664v21.336c0,5.891,4.773,10.664,10.664,10.664
		s10.672-4.773,10.672-10.664V74.663C117.335,68.772,112.554,63.999,106.663,63.999z"/>
	<path style="fill:#434A54;" d="M106.663,117.335c-5.891,0-10.664,4.773-10.664,10.664v42.664c0,5.891,4.773,10.672,10.664,10.672
		s10.672-4.781,10.672-10.672v-42.664C117.335,122.108,112.554,117.335,106.663,117.335z"/>
	<path style="fill:#434A54;" d="M106.663,191.999c-5.891,0-10.664,4.773-10.664,10.663v42.672c0,5.891,4.773,10.664,10.664,10.664
		s10.672-4.773,10.672-10.664v-42.672C117.335,196.772,112.554,191.999,106.663,191.999z"/>
	<path style="fill:#434A54;" d="M405.341,127.999c-5.906,0-10.688,4.773-10.688,10.664v42.672c0,5.891,4.781,10.664,10.688,10.664
		c5.875,0,10.656-4.773,10.656-10.664v-42.672C415.997,132.772,411.216,127.999,405.341,127.999z"/>
	<path style="fill:#434A54;" d="M149.335,501.324c-17.648,0-32-14.344-32-31.999V42.663c0-17.64,14.352-31.999,32-31.999h213.318
		c17.656,0,32,14.359,32,31.999v426.662c0,17.655-14.344,31.999-32,31.999H149.335z"/>
</g>
<rect x="117.338" y="74.668" style="fill:#5D9CEC;" width="277.32" height="341.33"/>
<g>
	<path style="fill:#656D78;" d="M362.653,0H149.335c-23.57,0-42.672,19.102-42.672,42.663v426.662
		c0,23.562,19.102,42.671,42.672,42.671h213.318c23.578,0,42.688-19.109,42.688-42.671V42.663C405.341,19.102,386.231,0,362.653,0z
		 M394.653,469.325c0,17.655-14.344,31.999-32,31.999H149.335c-17.648,0-32-14.344-32-31.999V42.663
		c0-17.64,14.352-31.999,32-31.999h213.318c17.656,0,32,14.359,32,31.999V469.325z"/>
	<path style="fill:#656D78;" d="M255.998,426.669c-17.672,0-32,14.328-32,32s14.328,31.999,32,31.999c17.671,0,32-14.327,32-31.999
		S273.67,426.669,255.998,426.669z M255.998,469.325c-5.883,0-10.664-4.781-10.664-10.656c0-5.891,4.781-10.672,10.664-10.672
		c5.882,0,10.664,4.781,10.664,10.672C266.662,464.544,261.881,469.325,255.998,469.325z"/>
</g>
<path style="fill:#5D9CEC;" d="M213.334,42.663c0,5.891-4.781,10.672-10.672,10.672s-10.664-4.781-10.664-10.672
	s4.773-10.664,10.664-10.664S213.334,36.772,213.334,42.663z"/>
<path style="opacity:0.2;enable-background:new    ;" d="M277.342,31.999h-42.679c-5.891,0-10.664,4.773-10.664,10.664
	s4.773,10.672,10.664,10.672h42.679c5.875,0,10.656-4.781,10.656-10.672S283.217,31.999,277.342,31.999z"/>
<polygon style="opacity:0.1;fill:#FFFFFF;enable-background:new    ;" points="254.663,416.106 193.334,416.106 257.335,74.663 
	318.654,74.663 "/>
<g>
</g>
<g>
</g>
<g>
</g>
<g>
</g>
<g>
</g>
<g>
</g>
<g>
</g>
<g>
</g>
<g>
</g>
<g>
</g>
<g>
</g>
<g>
</g>
<g>
</g>
<g>
</g>
<g>
</g>
</svg>
