<svg xmlns="http://www.w3.org/2000/svg" shape-rendering="geometricPrecision" text-rendering="geometricPrecision" image-rendering="optimizeQuality" fill-rule="evenodd" clip-rule="evenodd" viewBox="0 0 500 511.61"><path fill-rule="nonzero" d="m265.96 363.22 15.5-101.27c-45.53 4.53-96.07 15.77-138.72 45.89-47.72 33.69-86.32 91.71-98.25 191.8-.87 7.43-7.62 12.75-15.06 11.87-5.73-.68-10.21-4.86-11.55-10.14C7 468.76 1.42 437.95.25 409.03c-3.27-79.4 26.39-144.22 70.18-193.61 43.36-48.92 100.66-82.64 153.32-100.33 20.18-6.8 39.79-11.27 57.77-13.36L266.08 15.9c-1.32-7.34 3.57-14.38 10.91-15.69 4.07-.72 8.04.46 11 2.9l207.1 171.3c5.76 4.77 6.57 13.33 1.8 19.08l-1.54 1.59-207.06 180.39c-5.64 4.92-14.22 4.32-19.14-1.32a13.529 13.529 0 0 1-3.19-10.93z"/></svg>